<?xml version="1.0" encoding="UTF-8" standalone="no"?>
<!-- Created with Inkscape (http://www.inkscape.org/) -->

<svg
   width="200mm"
   height="200mm"
   viewBox="0 0 200 200"
   version="1.1"
   id="svg1"
   xml:space="preserve"
   xmlns="http://www.w3.org/2000/svg"
   xmlns:svg="http://www.w3.org/2000/svg"><defs
     id="defs1" /><g
     id="layer1"><g
       id="g1"
       transform="scale(3.125)"><path
         style="fill:#97d370;stroke:none"
         d="M 0,0 V 8 H 8 V 0 Z"
         id="path1" /><path
         style="fill:#67a346;stroke:none"
         d="M 8,0 V 8 H 0 v 8 H 8 V 8 h 8 v 8 h 8 V 8 H 16 V 0 Z"
         id="path2" /><path
         style="fill:#81c159;stroke:none"
         d="m 16,0 v 8 h 8 V 0 Z"
         id="path3" /><path
         style="fill:#97d370;stroke:none"
         d="m 24,0 v 8 h 8 V 0 Z"
         id="path4" /><path
         style="fill:#81c159;stroke:none"
         d="m 32,0 v 8 h 8 V 0 Z"
         id="path5" /><path
         style="fill:#67a346;stroke:none"
         d="m 40,0 v 8 h -8 v 8 h 8 V 8 h 8 V 0 Z"
         id="path6" /><path
         style="fill:#81c159;stroke:none"
         d="m 48,0 v 8 h 8 v 8 h 8 V 8 H 56 V 0 Z"
         id="path7" /><path
         style="fill:#67a346;stroke:none"
         d="m 56,0 v 8 h 8 V 0 Z"
         id="path8" /><path
         style="fill:#614330;stroke:none"
         d="m 8,8 v 8 H 0 v 8 h 8 v -8 h 8 v 8 h 16 v 8 h 8 v -8 h 8 v -8 h 8 V 8 h -8 v 8 h -8 v 8 H 32 V 16 H 16 V 8 Z"
         id="path9" /><path
         style="fill:#4e8235;stroke:none"
         d="m 24,8 v 8 h 8 V 8 Z"
         id="path10" /><path
         style="fill:#81c15a;stroke:none"
         d="m 40,8 v 8 h 8 V 8 Z"
         id="path11" /><path
         style="fill:#968e8b;stroke:none"
         d="m 8,16 v 8 h 8 v -8 z"
         id="path12" /><path
         style="fill:#81c159;stroke:none"
         d="m 32,16 v 8 h 8 v -8 z"
         id="path13" /><path
         style="fill:#7a573e;stroke:none"
         d="m 48,16 v 8 h -8 v 8 h -8 v 8 h 8 v 8 h 8 v 8 h 8 v -8 h 8 v -8 h -8 v 8 h -8 v -8 h -8 v -8 h 8 v -8 h 8 v -8 z"
         id="path14" /><path
         style="fill:#67a346;stroke:none"
         d="m 56,16 v 8 h 8 v -8 z"
         id="path15" /><path
         style="fill:#90694a;stroke:none"
         d="m 0,24 v 8 h 8 v -8 z"
         id="path16" /><path
         style="fill:#7a583e;stroke:none"
         d="m 8,24 v 8 h 8 v -8 z"
         id="path17" /><path
         style="fill:#90694a;stroke:none"
         d="m 16,24 v 8 h 8 v 8 h 8 v -8 h -8 v -8 z"
         id="path18" /><path
         style="fill:#a57c5a;stroke:none"
         d="m 24,24 v 8 h 8 v -8 z"
         id="path19" /><path
         style="fill:#90694a;stroke:none"
         d="m 48,24 v 8 h 8 v -8 z"
         id="path20" /><path
         style="fill:#614330;stroke:none"
         d="m 56,24 v 8 h -8 v 8 H 64 V 24 Z"
         id="path21" /><path
         style="fill:#7a573e;stroke:none"
         d="m 0,32 v 8 h 8 v 8 H 0 v 8 h 8 v 8 h 8 V 56 H 8 v -8 h 8 V 40 H 8 v -8 z"
         id="path22" /><path
         style="fill:#614330;stroke:none"
         d="m 8,32 v 8 h 8 v 16 h 8 v -8 h 8 v -8 h -8 v -8 z"
         id="path23" /><path
         style="fill:#a47c5a;stroke:none"
         d="m 40,32 v 8 h 8 v -8 z"
         id="path24" /><path
         style="fill:#a47b5a;stroke:none"
         d="m 0,40 v 8 h 8 v -8 z"
         id="path25" /><path
         style="fill:#968e8b;stroke:none"
         d="m 32,40 v 8 h 8 v -8 z"
         id="path26" /><path
         style="fill:#90694a;stroke:none"
         d="m 48,40 v 8 h 8 V 40 H 48 M 8,48 v 8 h 8 v -8 z"
         id="path27" /><path
         style="fill:#a57c5a;stroke:none"
         d="m 24,48 v 8 h 8 v -8 z"
         id="path28" /><path
         style="fill:#90694a;stroke:none"
         d="m 32,48 v 8 h 8 v 8 h 8 v -8 h -8 v -8 z"
         id="path29" /><path
         style="fill:#a47b5a;stroke:none"
         d="m 40,48 v 8 h 8 v -8 z"
         id="path30" /><path
         style="fill:#90694a;stroke:none"
         d="m 56,48 v 8 h 8 v -8 z"
         id="path31" /><path
         style="fill:#614330;stroke:none"
         d="m 0,56 v 8 h 8 v -8 z"
         id="path32" /><path
         style="fill:#968e8b;stroke:none"
         d="m 16,56 v 8 h 8 v -8 z"
         id="path33" /><path
         style="fill:#7a573e;stroke:none"
         d="m 24,56 v 8 h 16 v -8 z"
         id="path34" /><path
         style="fill:#614330;stroke:none"
         d="m 48,56 v 8 h 8 v -8 z"
         id="path35" /><path
         style="fill:#a47b5a;stroke:none"
         d="m 56,56 v 8 h 8 v -8 z"
         id="path36" /></g></g></svg>
