<svg
   width="200mm"
   height="112.15mm"
   viewBox="0 0 200 112.15"
   xmlns="http://www.w3.org/2000/svg">
  <path
       d="M 200,112.14974 H 0 C 3.2005226,78.25033 22.577838,49.293224 51.18659,33.791374 L 34.596126,5.0519842 c -0.936208,-1.611147 -0.3919,-3.6577403 1.219246,-4.59394735 1.611148,-0.93620704 3.65774,-0.39190074 4.593948,1.21924705 L 57.217508,30.786802 C 70.04137,24.930056 84.476378,21.664218 100,21.664218 c 15.52363,0 29.95863,3.265838 42.7825,9.122584 L 159.59068,1.6772839 c 0.91444,-1.61114779 2.9828,-2.15545409 4.57218,-1.21924705 1.58937,0.93620705 2.15545,2.98280035 1.21925,4.59394735 L 148.79165,33.791374 C 177.42217,49.293224 196.79948,78.25033 200,112.14974 Z M 145.89593,84.063518 c 4.6375,0 8.4041,-3.76659 8.38233,-8.382312 0,-4.615722 -3.74483,-8.382322 -8.38233,-8.382322 -4.61572,0 -8.38232,3.744826 -8.38232,8.382322 0,4.615722 3.74484,8.382312 8.38232,8.382312 z m -91.813628,0 c 4.637492,0 8.404094,-3.76659 8.38232,-8.382312 0,-4.615722 -3.744828,-8.382322 -8.38232,-8.382322 -4.61572,0 -8.382322,3.744826 -8.382322,8.382322 0,4.615722 3.74483,8.382312 8.382322,8.382312 z"
       fill="#3DDC84" />
</svg>