<svg
   width="200mm"
   height="200mm"
   viewBox="0 0 200 200"
   xmlns="http://www.w3.org/2000/svg">
<path
     fill="#ffffff"
     d="m 99.895094,31.035 c 0,0 -62.513046,7.5e-5 -77.983792,4.206944 C 13.300897,37.517774 6.580099,44.138183 4.1299764,52.689833 -2.2611239e-4,67.862129 0,99.862281 0,99.862281 c 0,0 -2.2611239e-4,32.206389 4.1299764,47.516619 2.4501226,8.34475 9.1709206,15.10306 17.7813256,17.44788 15.470746,4.1379 77.983792,4.13822 77.983792,4.13822 0,0 62.652926,-3.2e-4 78.193596,-4.13822 8.75033,-2.34482 15.33111,-9.10313 17.64076,-17.44788 C 199.9998,132.06867 200,99.862281 200,99.862281 c 0,0 -2e-4,-32.000152 -4.27055,-47.172448 C 193.4198,44.138183 186.83902,37.517774 178.08869,35.241944 162.54802,31.035075 99.895094,31.035 99.895094,31.035 Z M 79.310325,70.689622 131.03425,99.999739 79.310325,129.30986 Z" />
</svg>